# xmcd CD database file
#
# Track frame offsets:
#	150
#	21020
#	36554
#	51645
#	65618
#	83962
#	103025
#	118624
#	135355
#	152679
#	168295
#	183135
#	207403
#
# Disc length: 2809 seconds
#
# Revision: 1
# Processed by: cddbd v1.5.2PL0 Copyright (c) Steve Scherf et al.
# Submitted via: CDex 1.77
#
DISCID=b20af70d
DTITLE=Allen, Lily - L. Allen, G. Kurstin
DYEAR=09
DGENRE=Blues
TTITLE0=Everyone's At You
TTITLE1=Fear, The
TTITLE2=Not Fair
TTITLE3=22
TTITLE4=I Could Stay
TTITLE5=Back To The Start
TTITLE6=Never Gonna Happen
TTITLE7=Fuck You
TTITLE8=Who'd Have Known
TTITLE9=Chinese
TTITLE10=Him
TTITLE11=He Wasn't There
TTITLE12=Data Track
EXTD=YEAR: 09
EXTT0=
EXTT1=
EXTT2=
EXTT3=
EXTT4=
EXTT5=
EXTT6=
EXTT7=
EXTT8=
EXTT9=
EXTT10=
EXTT11=
EXTT12=
PLAYORDER=
